<svg width="55" height="101" viewBox="0 0 55 101" fill="none" xmlns="http://www.w3.org/2000/svg">
<path fill-rule="evenodd" clip-rule="evenodd" d="M52.5444 89.2112C50.2766 96.1907 45.5844 103.555 38.4405 105.609C37.5599 105.895 36.571 105.578 36.1957 104.492C35.9201 103.642 36.3225 102.471 37.2031 102.185C44.5613 100.095 48.6638 91.6806 50.2684 84.5138C53.6981 69.2697 48.0151 54.1342 39.3024 42.1985C34.7613 36.0893 29.4832 30.6559 23.9439 25.5424C17.8593 19.9726 11.4111 14.9233 4.59917 10.3945C4.51043 10.4187 4.4025 10.4499 4.29457 10.4812C4.21764 10.5035 4.14071 10.5258 4.07073 10.5455C4.18445 10.7336 4.27733 10.9875 4.3485 11.1821C4.37696 11.2599 4.40196 11.3282 4.42342 11.3791C4.92349 12.3408 5.44338 13.2878 5.96327 14.2347C6.48318 15.1817 7.0031 16.1287 7.5032 17.0906C11.4834 24.4896 15.5194 31.9712 19.5554 39.4528C20.0452 40.2668 19.9363 41.3427 19.1437 41.9359C18.4304 42.4697 17.2712 42.343 16.7813 41.5289C15.5304 39.2338 14.2963 36.9415 13.0621 34.6492C11.828 32.3569 10.5939 30.0647 9.34294 27.7695C8.25917 25.722 7.15557 23.6894 6.05198 21.6567C4.94839 19.6241 3.8448 17.5915 2.76103 15.544C2.17146 14.4938 1.63762 13.5262 1.11554 12.4877C0.593469 11.4491 0.218157 10.3628 0.541331 9.25094C1.05085 7.28327 3.02428 6.86818 4.72073 6.51134C4.95156 6.46279 5.17727 6.41531 5.39346 6.36515L31.6238 0.156397C32.4925 -0.0588165 33.3756 0.895983 33.616 1.95899C33.7213 2.99874 33.0402 3.75709 32.1039 3.96067C29.8307 4.48127 27.5546 5.01961 25.2785 5.55795C23.0024 6.09628 20.7263 6.63462 18.4531 7.15522C16.092 7.6871 13.7498 8.24721 11.418 8.80486C10.7111 8.97392 10.0051 9.14275 9.2998 9.3105C16.1885 14.0832 22.7194 19.3571 28.7894 25.2094C40.0439 36.0506 50.3822 49.069 53.6818 65.1804C55.3492 73.1297 55.0766 81.4745 52.5444 89.2112ZM3.87621 10.3146C3.82974 10.2641 3.82995 10.2469 3.84167 10.2508C3.85347 10.2547 3.87692 10.2801 3.87621 10.3146Z" fill="#E9EAEC"/>
</svg>
