<svg width="57" height="56" viewBox="0 0 57 56" fill="none" xmlns="http://www.w3.org/2000/svg">
<g clip-path="url(#clip0_64_1125)">
<path d="M1.50844 0H55.4555C55.9848 0.065625 56.4081 0.491094 56.5 1.01172V54.9489C56.4355 55.4881 55.9958 55.9234 55.462 56H1.55984C1.02828 55.9388 0.591875 55.5155 0.5 54.9905V1.03906C0.567813 0.512969 0.991094 0.091875 1.50844 0ZM2.83406 2.33406C2.83297 7.77766 2.83297 13.2223 2.83406 18.6659C19.9447 18.667 37.0553 18.667 54.1659 18.6659C54.167 13.2223 54.167 7.77766 54.1659 2.33406C37.0553 2.33297 19.9447 2.33297 2.83406 2.33406ZM2.83297 21.0011C2.83406 31.8894 2.83297 42.7777 2.83406 53.6659C11 53.6648 19.167 53.6703 27.3341 53.6637C27.3319 42.7766 27.3341 31.8883 27.333 21.0011C19.1659 21 10.9989 20.9989 2.83297 21.0011ZM29.667 21.0011C29.6659 26.0553 29.6681 31.1095 29.6659 36.1637C37.833 36.1703 45.9989 36.1648 54.1659 36.1659C54.1681 31.1117 54.1648 26.0564 54.167 21.0022C46.0011 20.9978 37.8341 21 29.667 21.0011ZM29.667 38.5011C29.6659 43.5553 29.6681 48.6095 29.6659 53.6648C37.833 53.6692 46 53.6659 54.1659 53.6659C54.1681 48.6117 54.1648 43.5564 54.167 38.5022C46.0011 38.4978 37.8341 38.5 29.667 38.5011Z" fill="white"/>
</g>
<defs>
<clipPath id="clip0_64_1125">
<rect width="56" height="56" fill="white" transform="translate(0.5)"/>
</clipPath>
</defs>
</svg>
