<svg width="57" height="56" viewBox="0 0 57 56" fill="none" xmlns="http://www.w3.org/2000/svg">
<path d="M5.65229 1.86299C6.18494 1.73612 6.73729 1.74924 7.28197 1.75143C21.6484 1.75362 36.0148 1.74815 50.3823 1.75362C52.3357 1.7219 54.1765 3.16783 54.6173 5.06877C54.7835 5.69877 54.7474 6.35612 54.7507 7.00143C54.7507 18.9233 54.7507 30.8452 54.7507 42.7671C54.7649 43.688 54.5046 44.6242 53.9599 45.3735C53.6537 45.7891 52.9778 45.8088 52.6398 45.4216C52.3489 45.1263 52.3379 44.6396 52.5731 44.3071C52.8618 43.8499 53.0117 43.3139 53.0007 42.7725C53.0007 31.4325 53.0007 20.0925 53.0007 8.75143C36.6667 8.75143 20.3337 8.75143 4.00072 8.75143C4.00072 20.1264 3.99854 31.5014 4.00182 42.8764C3.969 44.2742 5.22135 45.5277 6.61916 45.4992C16.7243 45.5069 26.8306 45.4949 36.9368 45.5047C37.4782 45.485 37.9288 46.0527 37.7845 46.5766C37.6926 47.0097 37.2474 47.2941 36.8154 47.2514C26.7507 47.2492 16.686 47.2547 6.62135 47.2492C5.31869 47.2547 4.03682 46.6367 3.22307 45.6207C2.57229 44.8255 2.23213 43.7963 2.25072 42.7703C2.25182 30.5553 2.24854 18.3392 2.25291 6.12315C2.21791 4.13908 3.71197 2.27315 5.65229 1.86299ZM4.17025 5.2033C3.94057 5.77424 4.00947 6.40096 4.00182 7.00143C15.6678 7.00143 27.3337 7.00143 39.0007 7.00143C39.0007 5.8344 39.0007 4.66846 39.0007 3.50143C28.2065 3.50252 17.4134 3.49924 6.61916 3.50362C5.55385 3.49049 4.53557 4.20471 4.17025 5.2033ZM40.7507 3.50143C40.7507 4.66846 40.7507 5.8344 40.7507 7.00143C44.8337 7.00143 48.9167 7.00143 52.9996 7.00143C52.9898 6.45127 53.0521 5.88471 52.8804 5.35205C52.6376 4.56127 52.0021 3.90174 51.2146 3.64143C50.7367 3.46862 50.2215 3.50252 49.7228 3.50143C46.7324 3.50143 43.7421 3.50143 40.7507 3.50143Z" fill="white"/>
<path d="M39.9894 14.4423C40.1721 14.0934 40.5855 13.9643 40.9585 13.9971C42.6429 14.0048 44.3272 13.9916 46.0116 14.0037C46.4688 13.9971 46.8746 14.4062 46.868 14.8634C46.879 16.5838 46.8691 18.3043 46.8724 20.0248C46.9085 20.4491 46.6252 20.8779 46.2041 20.972C45.6835 21.1196 45.1115 20.6745 45.1268 20.1341C45.1147 19.1137 45.1268 18.0921 45.1224 17.0716C40.6774 21.777 36.2379 26.4866 31.7885 31.1876C31.4757 31.5649 30.861 31.5813 30.5165 31.2379C29.2576 29.9932 28.0118 28.7332 26.7561 27.4841C25.2271 29.0132 23.6991 30.5434 22.1679 32.0702C21.8627 32.4104 21.294 32.4684 20.944 32.1632C20.5601 31.8602 20.524 31.2302 20.8772 30.8901C22.6251 29.1335 24.3794 27.3824 26.1338 25.6335C26.451 25.2934 27.0427 25.2879 27.361 25.6291C28.6111 26.8738 29.8569 28.1229 31.1049 29.3709C35.3968 24.834 39.6799 20.2884 43.9696 15.7493C42.8551 15.7384 41.7383 15.769 40.6249 15.7351C40.0354 15.6804 39.6733 14.9432 39.9894 14.4423Z" fill="white"/>
<path d="M24.5789 17.2146C28.4059 15.9984 32.7853 16.659 36.0468 19.0149C36.4559 19.3299 37.0662 19.6263 37.0203 20.2345C37.0148 20.9104 36.1245 21.3228 35.6093 20.8754C33.902 19.5006 31.7954 18.6201 29.609 18.421C27.1 18.1717 24.5143 18.7798 22.3925 20.1437C20.0321 21.6378 18.2548 24.0276 17.522 26.7248C16.8154 29.2853 17.0385 32.0918 18.1607 34.5003C19.295 36.9699 21.3468 39.0021 23.8275 40.1134C26.4415 41.3034 29.5117 41.4357 32.2209 40.4853C34.9848 39.5348 37.3375 37.4665 38.6467 34.8546C39.9657 32.2712 40.2184 29.1759 39.3675 26.4054C39.2012 25.9679 39.444 25.4342 39.8881 25.2821C40.3387 25.1006 40.902 25.3773 41.0267 25.8487C41.8076 28.3621 41.8098 31.1129 41.0223 33.6242C40.4809 35.3687 39.56 36.9896 38.3612 38.3667C39.1542 39.164 39.9493 39.9592 40.7467 40.7532C41.9662 40.0412 43.6123 40.1003 44.729 40.9862C47.0576 42.9899 49.407 44.9718 51.7399 46.9723C52.4542 47.5859 52.9146 48.4871 52.9726 49.4288C53.0481 50.4723 52.6303 51.5299 51.8789 52.2551C51.4709 52.6521 51.0892 53.0776 50.655 53.4462C49.7985 54.1462 48.5998 54.4131 47.5301 54.1254C46.8039 53.9395 46.1454 53.514 45.662 52.9431C44.0334 51.0345 42.407 49.1248 40.7795 47.2162C40.3726 46.7163 39.9165 46.2548 39.5523 45.7221C38.8282 44.6142 38.8293 43.1146 39.4921 41.9793C38.7014 41.1853 37.9106 40.3934 37.1165 39.6037C35.0078 41.4587 32.2975 42.6235 29.492 42.8248C26.459 43.0698 23.355 42.2035 20.8831 40.4284C18.3314 38.6149 16.4578 35.8674 15.7315 32.8192C15.0446 29.9842 15.3334 26.9217 16.5606 24.2737C18.0831 20.9334 21.0679 18.2953 24.5789 17.2146ZM42.1051 42.0592C41.7245 42.1587 41.3778 42.3862 41.1393 42.7001C40.6318 43.3454 40.6471 44.3298 41.1765 44.9587C43.1376 47.2632 45.0998 49.5667 47.0653 51.8679C47.5334 52.4388 48.369 52.6532 49.0559 52.3874C49.5404 52.2234 49.8642 51.8088 50.2185 51.4654C50.5587 51.1143 50.9667 50.7949 51.1362 50.3192C51.4107 49.629 51.204 48.7835 50.6342 48.3056C48.3526 46.3554 46.0667 44.4096 43.7807 42.4638C43.3323 42.0646 42.6859 41.9049 42.1051 42.0592Z" fill="white"/>
</svg>
