<svg width="57" height="56" viewBox="0 0 57 56" fill="none" xmlns="http://www.w3.org/2000/svg">
<path d="M26.711 0H29.7396C32.7332 0.0754687 35.7006 1.07625 38.1014 2.87219C40.1423 4.38922 41.784 6.44984 42.776 8.79375C43.0396 9.32969 42.5387 10.0045 41.9524 9.91922C41.5149 9.89625 41.2809 9.48172 41.1267 9.12516C39.6774 5.92266 36.8359 3.39937 33.4989 2.30453C31.7215 1.68219 29.8217 1.59797 27.9557 1.64062C26.0012 1.58922 24.0171 1.82 22.1982 2.57031C19.2812 3.73516 16.8203 6.00141 15.4345 8.82109C14.7859 10.1172 14.367 11.5259 14.1909 12.9631C14.0498 14.1487 14.0903 15.3431 14.0848 16.5342C16.1378 17.4027 18.4029 17.6597 20.6156 17.5175C23.922 17.2648 27.1267 16.1952 30.0634 14.6847C31.8801 13.8009 33.6126 12.7433 35.2489 11.5588C35.5923 11.317 35.9784 10.9331 36.4367 11.1147C36.931 11.2798 37.0229 11.8508 37.2417 12.2555C38.214 14.2472 40.2057 15.5772 42.3221 16.0912C42.3517 15.0292 42.2937 13.9683 42.2281 12.9095C42.1603 12.4348 42.5485 11.9536 43.0396 11.9766C43.4268 11.9678 43.7812 12.2773 43.8326 12.6602C43.977 13.5439 43.9617 14.443 43.9715 15.3355C44.8181 15.7106 45.4579 16.5572 45.4601 17.5C45.4699 18.8486 45.4667 20.1972 45.4623 21.5458C45.4721 22.505 44.8224 23.368 43.9682 23.7573C43.9617 24.8063 43.9814 25.8552 43.9584 26.9041C43.9365 28.0645 43.4848 29.2119 42.6984 30.0672C42.052 30.7913 41.1704 31.2736 40.2385 31.5164C38.2009 32.0513 36.16 32.5752 34.1223 33.1089C34.1256 33.5705 34.2459 34.032 34.5773 34.3689C35.0378 34.2453 35.5201 34.2748 35.9696 34.4312C38.7489 35.2986 41.5281 36.1681 44.3084 37.0322C44.9668 37.24 45.6318 37.4314 46.2771 37.6819C48.3859 38.5077 50.2124 40.0203 51.4287 41.9289C52.5553 43.6658 53.1535 45.7308 53.1557 47.7991C53.159 49.9472 53.1656 52.0964 53.1535 54.2445C53.1743 55.1436 52.4174 55.9366 51.5282 56H5.47917C4.58448 55.9442 3.82104 55.1458 3.84292 54.2423C3.83198 52.313 3.83636 50.3836 3.83964 48.4553C3.80792 48.0244 4.09995 47.5825 4.5462 47.5355C5.03182 47.4491 5.49011 47.8767 5.47479 48.3613C5.50214 50.3584 5.45729 52.3567 5.49667 54.3539C7.00495 54.3648 8.51432 54.3572 10.0237 54.3583C10.0226 51.9509 10.0259 49.5447 10.0215 47.1373C10.0237 46.8431 10.0346 46.5117 10.2578 46.2908C10.552 45.9616 11.1218 45.9572 11.4215 46.2831C11.6599 46.5008 11.6599 46.8442 11.6676 47.1428C11.6621 49.548 11.6665 51.9531 11.6643 54.3594C22.8873 54.3594 34.1092 54.3594 45.3321 54.3594C45.3299 51.952 45.3343 49.5447 45.3289 47.1384C45.3354 46.8409 45.3387 46.4986 45.576 46.282C45.8746 45.9583 46.4412 45.9616 46.7365 46.2886C46.9607 46.5084 46.9728 46.8398 46.9749 47.1341C46.9706 49.5425 46.9739 51.9509 46.9728 54.3583C48.4821 54.3572 49.9904 54.3648 51.4998 54.3539C51.5337 52.7527 51.5053 51.1503 51.514 49.548C51.5009 48.3755 51.5807 47.1888 51.3423 46.0327C50.8206 43.2852 48.9699 40.8253 46.4707 39.5686C45.6548 39.142 44.7634 38.8992 43.8895 38.6236C42.5037 38.1916 41.119 37.7595 39.7332 37.3286C38.669 38.5394 37.6081 39.7534 36.5449 40.9664C36.1501 41.4072 35.7826 41.8753 35.3396 42.2702C34.4537 43.073 33.1631 43.4 32.0015 43.1211C30.8181 42.7853 29.6685 42.3402 28.4993 41.9595C27.3104 42.3566 26.1281 42.7766 24.9359 43.1637C23.736 43.5542 22.3481 43.1441 21.5321 42.1881C20.1015 40.5748 18.6884 38.9452 17.2632 37.3286C15.4279 37.9083 13.5839 38.4573 11.7562 39.0589C9.22636 39.8934 7.12745 41.8961 6.15073 44.3713C6.00636 44.7366 5.84886 45.197 5.40807 45.2812C4.80432 45.4573 4.21261 44.7803 4.46198 44.2028C5.53276 41.1009 8.08557 38.5514 11.2028 37.5123C14.4096 36.4722 17.6406 35.5042 20.854 34.4837C21.3549 34.3044 21.8964 34.2191 22.4181 34.3689C22.7374 34.043 22.8621 33.6033 22.8753 33.157C20.6659 32.6025 18.4543 32.0567 16.2449 31.5022C15.3043 31.2714 14.4129 30.7967 13.7523 30.0814C12.9571 29.2414 12.4923 28.1061 12.4562 26.9511C12.4245 25.7753 12.4551 24.5995 12.4409 23.4227C11.9334 22.9742 11.5604 22.3486 11.5451 21.6573C11.5101 20.5647 11.544 19.4709 11.5298 18.3772C11.5353 17.7778 11.4839 17.1456 11.742 16.5856C11.8929 16.2225 12.1685 15.9348 12.4431 15.6614C12.4387 15.038 12.4431 14.4134 12.4792 13.7911C12.6487 9.98266 14.4206 6.2825 17.2654 3.74937C19.8237 1.40656 23.2504 0.0853125 26.711 0ZM21.927 19.0389C20.3924 19.2358 18.8393 19.2248 17.3015 19.0728C17.3059 20.1228 17.2621 21.1794 17.4328 22.2195C17.9534 25.6539 20.1781 28.7777 23.2559 30.3888C25.1962 31.4377 27.4526 31.8598 29.6434 31.6444C28.8099 31.232 28.2204 30.3603 28.2412 29.4186C28.2335 28.3095 29.0932 27.2836 30.1837 27.0889C31.1506 26.9172 32.1164 26.7356 33.0887 26.6C34.0184 26.4819 34.9349 27.0091 35.4129 27.7933C36.0276 27.6905 36.6423 27.5866 37.257 27.4783C38.7773 25.5522 39.6731 23.1284 39.6906 20.6686C39.6917 19.4042 39.6949 18.1398 39.6884 16.8766C38.0828 16.0464 36.6773 14.7864 35.8537 13.16C31.6909 16.0453 26.9878 18.3433 21.927 19.0389ZM41.2164 22.2742C41.8573 22.2666 42.4993 22.2928 43.1403 22.2644C43.5045 22.2469 43.8228 21.9253 43.8151 21.5545C43.8414 20.2267 43.8096 18.8967 43.8293 17.5678C43.627 17.7111 43.4192 17.8927 43.1534 17.8773C42.5321 17.8631 41.9393 17.6531 41.3367 17.5273C41.3082 19.11 41.4176 20.6992 41.2164 22.2742ZM13.1726 17.9298C13.1781 19.1352 13.1617 20.3416 13.1792 21.5469C13.1649 21.9297 13.4985 22.2611 13.8781 22.2644C14.5114 22.2917 15.1457 22.2666 15.7801 22.2742C15.6204 21.1127 15.6664 19.9391 15.6587 18.7709C14.8231 18.5117 13.971 18.293 13.1726 17.9298ZM14.0892 26.798C14.0924 27.8075 14.5978 28.8006 15.4268 29.3792C15.8304 29.6723 16.3095 29.832 16.7885 29.9491C18.2378 30.3078 19.6859 30.6709 21.134 31.0319C18.7223 29.3169 16.899 26.7816 16.1192 23.9203C15.4443 23.9148 14.7695 23.9269 14.0946 23.9127C14.076 24.8741 14.0837 25.8366 14.0892 26.798ZM40.734 24.383C40.4682 25.2656 40.0734 26.1023 39.6359 26.9106C39.9596 26.6864 40.2768 26.437 40.4956 26.1023C40.9571 25.4548 41.0118 24.6214 40.9528 23.8536C40.8642 24.0231 40.7876 24.1992 40.734 24.383ZM40.2867 28.4222C39.6206 28.7755 38.8637 28.8706 38.1309 28.9953C37.4878 29.7008 36.7823 30.3461 36.0199 30.9192C37.2712 30.5933 38.5235 30.2684 39.7759 29.9425C40.5765 29.7566 41.3181 29.2884 41.7742 28.5972C42.274 27.8994 42.3615 27.0156 42.3243 26.1822C41.9284 27.1338 41.212 27.9562 40.2867 28.4222ZM33.1106 28.2472C32.264 28.3916 31.4153 28.5305 30.5709 28.6836C30.2045 28.7306 29.8873 29.0445 29.8851 29.423C29.8468 29.8955 30.3314 30.298 30.7896 30.1941C31.669 30.0486 32.5495 29.9031 33.4256 29.7402C33.8642 29.6811 34.1846 29.2075 34.0468 28.7809C33.944 28.3828 33.5043 28.1444 33.1106 28.2472ZM24.4995 32.7173C24.5706 33.6766 24.3595 34.6817 23.6912 35.4047C25.2935 36.9228 26.8948 38.442 28.4982 39.958C30.1017 38.4409 31.704 36.9228 33.3053 35.4047C32.6359 34.6817 32.4259 33.6755 32.497 32.7173C29.9168 33.5563 27.0796 33.5573 24.4995 32.7173ZM18.9804 36.7894C20.2339 38.2233 21.4851 39.6583 22.7451 41.0856C23.152 41.5713 23.8421 41.7955 24.4503 41.5909C25.2881 41.3317 26.1117 41.0277 26.9451 40.7531C25.2421 39.1355 23.537 37.52 21.8296 35.9056C20.8792 36.1977 19.9309 36.4963 18.9804 36.7894ZM30.0514 40.7531C30.8148 40.997 31.5618 41.2967 32.3362 41.5056C33.1259 41.7266 33.9845 41.4028 34.5073 40.7914C35.682 39.4614 36.8479 38.1248 38.016 36.7894C37.0656 36.4973 36.1173 36.1977 35.1668 35.9056C33.4595 37.52 31.7543 39.1355 30.0514 40.7531Z" fill="white"/>
<path d="M14.8496 45.6366C15.0607 45.6016 15.2751 45.6027 15.4884 45.6016C17.4189 45.6092 19.3493 45.5972 21.2787 45.607C22.041 45.5808 22.7498 46.2567 22.7553 47.0202C22.7728 47.7508 22.7542 48.4825 22.7629 49.2142C22.8099 49.8202 22.7356 50.5169 22.2018 50.903C21.8015 51.2628 21.2382 51.2398 20.7362 51.2311C18.8757 51.2245 17.0142 51.2366 15.1537 51.2267C14.3782 51.2442 13.6739 50.5387 13.6935 49.7633C13.687 48.8544 13.6837 47.9455 13.6946 47.0377C13.6914 46.377 14.2153 45.7777 14.8496 45.6366ZM15.3342 47.2477C15.3342 48.0264 15.3331 48.8052 15.3353 49.5839C17.2624 49.5861 19.1907 49.585 21.119 49.585C21.1223 48.8062 21.1179 48.0286 21.1212 47.2498C19.1929 47.2455 17.2635 47.2487 15.3342 47.2477Z" fill="white"/>
</svg>
