<svg width="57" height="56" viewBox="0 0 57 56" fill="none" xmlns="http://www.w3.org/2000/svg">
<path d="M27.1299 0.955839C28.2729 0.756776 29.4826 0.945995 30.5042 1.50053C31.8812 2.23115 32.8951 3.60599 33.1817 5.13834C33.4463 6.49787 33.1456 7.95693 32.3548 9.09334C31.5115 10.3347 30.1137 11.1835 28.6207 11.3443C27.2415 11.5094 25.8065 11.0916 24.7313 10.2144C23.6245 9.32849 22.9004 7.97881 22.7932 6.56349C22.6587 5.06178 23.2165 3.5174 24.2818 2.45099C25.0442 1.67115 26.0537 1.13959 27.1299 0.955839ZM27.3465 2.69162C26.5754 2.84256 25.8634 3.26693 25.3548 3.86521C24.2501 5.11318 24.2534 7.15521 25.3624 8.39881C26.4048 9.67193 28.3812 10.0121 29.7867 9.15349C31.2424 8.34084 31.926 6.41912 31.2938 4.87146C30.7262 3.31943 28.9652 2.33943 27.3465 2.69162Z" fill="white"/>
<path d="M28.8917 4.43004C29.0743 4.21785 29.2931 3.99473 29.5906 3.97067C30.0838 3.89082 30.576 4.3141 30.576 4.81176C30.599 5.1366 30.3824 5.4002 30.1779 5.62551C29.4713 6.40863 28.7845 7.21035 28.0768 7.99129C27.8154 8.29864 27.3374 8.38613 26.9907 8.17832C26.667 7.96067 26.4613 7.61613 26.2043 7.33067C25.9593 7.00582 25.6126 6.73239 25.4945 6.32989C25.3457 5.77426 25.8663 5.18692 26.4351 5.26785C26.9076 5.30723 27.1526 5.76442 27.4435 6.07614C27.9226 5.52489 28.4115 4.98238 28.8917 4.43004Z" fill="white"/>
<path d="M35.3802 6.22412C36.5899 5.93756 37.7887 5.59959 39.0027 5.33381C39.6918 5.20147 40.2452 6.07209 39.8504 6.6474C39.4544 7.21396 38.6582 7.12756 38.072 7.3649C41.6901 9.03068 44.8466 11.6787 47.1216 14.9468C48.8968 17.4733 50.1579 20.363 50.778 23.3883C51.8346 28.4808 51.0712 33.9277 48.6605 38.5346C46.0027 43.6665 41.2941 47.6882 35.8188 49.5312C35.2687 49.7499 34.6223 49.2566 34.6715 48.6715C34.677 48.281 34.9766 47.954 35.3419 47.8512C39.4687 46.4271 43.1262 43.684 45.6473 40.1205C48.2121 36.5177 49.5563 32.0804 49.4907 27.6627C49.4513 24.3957 48.6212 21.1429 47.0954 18.2532C44.9287 14.1046 41.3423 10.7172 37.0591 8.82287C37.3216 9.35443 37.6301 9.86303 37.8795 10.4001C38.0993 10.8485 37.8215 11.4358 37.3468 11.5704C36.9454 11.7082 36.4784 11.4993 36.2957 11.1219C35.6734 9.9549 35.0521 8.78678 34.4363 7.61537C34.2668 7.31568 34.2799 6.92193 34.4965 6.64959C34.6977 6.36193 35.0663 6.30725 35.3802 6.22412Z" fill="white"/>
<path d="M20.705 6.63591C21.2671 6.43794 21.8993 6.9695 21.8151 7.55575C21.791 7.96153 21.4465 8.24919 21.0801 8.35966C16.8385 9.95325 13.146 12.9687 10.7398 16.8089C8.58074 20.2312 7.45308 24.289 7.51652 28.3348C7.56464 32.105 8.65949 35.8554 10.6545 39.0547C12.8431 42.6028 16.109 45.4859 19.9295 47.1626C19.6703 46.6333 19.3629 46.129 19.1146 45.5942C18.8773 45.1108 19.224 44.4862 19.7468 44.3998C20.1646 44.3047 20.5792 44.5726 20.7443 44.9522C21.3568 46.1225 21.9934 47.2819 22.5939 48.4587C22.8498 48.9531 22.4998 49.5951 21.9595 49.6848C20.6787 50.0053 19.399 50.3356 18.116 50.644C17.6446 50.7895 17.112 50.4504 17.0332 49.9681C16.9414 49.5393 17.2235 49.0778 17.6479 48.9684C18.0679 48.8437 18.5 48.7628 18.9178 48.6315C15.7546 47.1692 12.9393 44.9631 10.765 42.2408C8.30949 39.1794 6.65245 35.4781 6.04761 31.5986C5.30495 26.9654 6.03995 22.1092 8.12574 17.9048C10.6621 12.7183 15.2734 8.58935 20.705 6.63591Z" fill="white"/>
<path d="M27.3424 15.5959C29.5299 15.5161 31.736 15.6495 33.8798 16.1089C35.1004 16.3955 36.3396 16.7663 37.3645 17.5133C37.9507 17.9409 38.4298 18.6016 38.4112 19.3552C38.4123 25.1542 38.4112 30.9522 38.4123 36.7513C38.4451 37.4305 38.0776 38.0627 37.569 38.4892C36.8504 39.0963 35.9634 39.4572 35.0774 39.7416C33.2695 40.2939 31.3751 40.5061 29.4927 40.5794C27.4059 40.645 25.3048 40.5138 23.2584 40.0861C22.0793 39.8225 20.8937 39.4725 19.8688 38.8152C19.3876 38.4969 18.9435 38.078 18.727 37.5322C18.5541 37.1089 18.6012 36.643 18.5957 36.1967C18.5979 30.5814 18.5946 24.9661 18.5979 19.3508C18.5771 18.6213 19.031 17.977 19.591 17.5527C20.4102 16.9259 21.4012 16.5749 22.3845 16.297C24.001 15.8639 25.6723 15.6649 27.3424 15.5959ZM25.1341 17.5352C23.9441 17.6992 22.7541 17.9409 21.6385 18.3949C21.1398 18.6169 20.5995 18.8608 20.3085 19.3508C20.9495 20.0945 21.936 20.3789 22.8416 20.6524C24.9329 21.2069 27.1127 21.3589 29.2685 21.3086C31.0918 21.2495 32.9293 21.0549 34.6749 20.5025C35.294 20.2903 35.9284 20.0574 36.4337 19.6275C36.519 19.5225 36.6973 19.4208 36.647 19.2633C36.3615 18.8488 35.8824 18.6311 35.4395 18.4255C34.0351 17.8392 32.517 17.5909 31.0109 17.4367C29.0563 17.2617 27.081 17.2836 25.1341 17.5352ZM20.3479 25.0569C20.337 25.3642 20.653 25.5316 20.8674 25.6913C21.9174 26.3267 23.137 26.6013 24.3291 26.8255C26.5057 27.193 28.7293 27.2433 30.9256 27.0541C32.2391 26.9305 33.5505 26.7172 34.8051 26.3016C35.3388 26.1124 35.8759 25.9013 36.3298 25.5567C36.4818 25.4277 36.6831 25.2811 36.6601 25.0558C36.6666 23.8964 36.659 22.737 36.6612 21.5788C35.2732 22.2831 33.7321 22.6091 32.202 22.8278C29.8843 23.1286 27.5295 23.1483 25.2074 22.8759C23.5416 22.6638 21.8573 22.3422 20.3468 21.5788C20.349 22.7381 20.3413 23.8975 20.3479 25.0569ZM20.3468 27.4194C20.3468 28.5602 20.3457 29.7009 20.3457 30.8417C20.3063 31.1589 20.6093 31.3492 20.8313 31.5111C21.5543 31.9727 22.3866 32.2242 23.2113 32.4353C25.1921 32.91 27.2429 33.0413 29.2751 32.9931C30.9277 32.9428 32.587 32.7678 34.1849 32.3336C34.8991 32.128 35.6188 31.8917 36.2368 31.4684C36.4381 31.3186 36.6984 31.137 36.6623 30.8505C36.6634 29.7075 36.6601 28.5645 36.6612 27.4216C35.1813 28.1664 33.5352 28.4989 31.9023 28.7067C29.3199 29.0108 26.6916 28.9867 24.1246 28.5591C22.8241 28.3436 21.5259 28.022 20.3468 27.4194ZM20.3457 33.2633C20.3512 34.4292 20.338 35.5963 20.3501 36.7622C20.337 37.0061 20.5721 37.1505 20.7373 37.2883C21.3848 37.74 22.1482 37.985 22.9007 38.1983C24.7273 38.6806 26.6238 38.8381 28.5084 38.848C30.417 38.837 32.3398 38.6763 34.1871 38.1753C34.9341 37.9577 35.6965 37.7105 36.3287 37.2434C36.4763 37.1155 36.6765 36.9777 36.6579 36.7567C36.6688 35.5919 36.6568 34.427 36.6623 33.2622C35.2776 33.9688 33.7365 34.2903 32.2085 34.5091C29.7935 34.8306 27.3359 34.8339 24.9198 34.5255C23.3502 34.3111 21.7698 33.9819 20.3457 33.2633Z" fill="white"/>
<path d="M27.5669 44.6899C28.8947 44.4635 30.3045 44.7708 31.4103 45.5408C32.6659 46.3973 33.5191 47.8202 33.6613 49.3362C33.8078 50.6935 33.3878 52.099 32.527 53.1577C31.6356 54.2777 30.2652 55.004 28.8356 55.1024C27.2694 55.2326 25.6681 54.6004 24.6028 53.4465C23.4259 52.2105 22.9316 50.3796 23.3155 48.7171C23.7497 46.6794 25.5074 45.0115 27.5669 44.6899ZM27.7791 46.4279C27.0058 46.5733 26.2916 46.9933 25.7797 47.5905C24.6827 48.821 24.6597 50.8346 25.7327 52.0869C26.7324 53.3535 28.6453 53.7451 30.0606 52.9707C31.5449 52.2269 32.3192 50.349 31.7658 48.7783C31.267 47.1432 29.4536 46.0691 27.7791 46.4279Z" fill="white"/>
<path d="M29.3606 48.1151C29.5334 47.915 29.7532 47.7247 30.031 47.7104C30.5221 47.6415 31.0001 48.0703 30.9924 48.5636C31.0132 48.8796 30.8043 49.1345 30.6064 49.3554C29.8976 50.1407 29.2096 50.9436 28.4998 51.7278C28.1946 52.0997 27.5756 52.1401 27.2398 51.789C26.9357 51.4795 26.6831 51.1251 26.3943 50.8014C26.1723 50.5301 25.8759 50.2534 25.8912 49.8739C25.8781 49.3697 26.3724 48.9332 26.8712 49.012C27.3328 49.059 27.5745 49.5064 27.8556 49.8181C28.3598 49.2526 28.8596 48.6839 29.3606 48.1151Z" fill="white"/>
</svg>
