<svg width="57" height="56" viewBox="0 0 57 56" fill="none" xmlns="http://www.w3.org/2000/svg">
<g clip-path="url(#clip0_64_1145)">
<path d="M22.8475 0H34.1372C34.4916 0.0754687 34.8175 0.331406 34.8963 0.696719C34.9487 1.00844 34.9214 1.32672 34.9269 1.64062C34.9258 3.72094 34.9247 5.80016 34.9269 7.88047C36.0348 8.24031 37.1209 8.67562 38.148 9.22688C39.6344 7.79516 41.0727 6.31094 42.5416 4.85844C42.8292 4.59375 43.0731 4.21859 43.4866 4.1475C43.8158 4.07859 44.1472 4.23063 44.3692 4.47125C46.9395 7.04594 49.5164 9.61516 52.0856 12.192C52.3919 12.4808 52.4608 12.9872 52.2234 13.3394C52.0441 13.5909 51.8056 13.7911 51.5923 14.012C50.1541 15.4547 48.707 16.8886 47.2731 18.3356C47.8145 19.3747 48.2553 20.463 48.6206 21.5753C50.9558 21.5808 53.292 21.5677 55.6272 21.5819C56.0614 21.5819 56.4103 21.9417 56.5 22.3497V33.6383C56.4169 34.055 56.0603 34.4181 55.6206 34.4192C53.2877 34.4313 50.9536 34.4192 48.6206 34.4247C48.252 35.5305 47.8255 36.6209 47.272 37.648C48.7081 39.1311 50.1902 40.5716 51.6437 42.0383C51.9062 42.3248 52.2748 42.5698 52.3503 42.9778C52.4214 43.307 52.2727 43.6406 52.0331 43.8638C49.6072 46.2897 47.1812 48.7156 44.7553 51.1416C44.553 51.3384 44.3681 51.5561 44.1384 51.7202C43.7852 51.9608 43.2766 51.8919 42.9867 51.5845C41.3713 49.9866 39.782 48.3602 38.1556 46.7731C37.1231 47.3167 36.0381 47.7597 34.928 48.1173C34.9192 50.4503 34.9356 52.7844 34.9203 55.1173C34.9192 55.5559 34.5605 55.9092 34.1481 56H22.8628C22.4056 55.9169 22.0425 55.498 22.0753 55.0266C22.0709 52.7242 22.0764 50.4219 22.0731 48.1195C20.963 47.7509 19.8758 47.3134 18.8378 46.7742C17.2213 48.3678 15.6298 49.9877 14.0155 51.5834C13.672 51.9531 13.0355 51.9575 12.692 51.5845C10.102 48.9934 7.50766 46.4078 4.92094 43.8134C4.5425 43.4711 4.54141 42.8269 4.91766 42.4834C6.51672 40.8723 8.13328 39.2788 9.72688 37.6622C9.18547 36.6242 8.7425 35.537 8.37937 34.4247C6.04422 34.4181 3.70906 34.4323 1.37391 34.4181C0.939687 34.417 0.590781 34.0594 0.5 33.6514V22.3584C0.582031 21.9428 0.940781 21.5786 1.37937 21.5808C3.71234 21.5688 6.04531 21.5808 8.37937 21.5753C8.73375 20.4487 9.21609 19.3703 9.71922 18.305C8.10484 16.7245 6.51891 15.1134 4.91875 13.5166C4.54359 13.1742 4.54141 12.5333 4.91656 12.1898C7.50437 9.59656 10.0955 7.00547 12.6888 4.41766C13.0322 4.04141 13.6731 4.04359 14.0177 4.41766C15.6298 6.01453 17.2223 7.63109 18.8367 9.22578C19.8736 8.68437 20.9619 8.24688 22.0731 7.88047C22.0764 5.58031 22.0709 3.28016 22.0753 0.98C22.0392 0.509687 22.3958 0.0929688 22.8475 0ZM23.9106 1.83859C23.9073 4.07203 23.9128 6.30656 23.9073 8.54C23.9248 8.96438 23.6164 9.36141 23.2041 9.45766C21.803 9.86016 20.4456 10.418 19.1714 11.1278C18.8225 11.3509 18.327 11.3214 18.0306 11.0206C16.4698 9.46859 14.9145 7.90891 13.3603 6.34922C11.1859 8.51594 9.005 10.6794 6.85141 12.8658C8.39797 14.3894 9.92375 15.9338 11.4616 17.4661C11.7766 17.7428 11.875 18.2339 11.6628 18.6014C10.942 19.8997 10.3612 21.2767 9.95875 22.7063C9.86031 23.1175 9.46 23.4292 9.03453 23.4062C6.80109 23.4073 4.56875 23.4052 2.33641 23.4073C2.33531 26.4688 2.33531 29.5312 2.33641 32.5927C4.56875 32.5948 6.80109 32.5927 9.03344 32.5938C9.46109 32.5686 9.8625 32.8836 9.95984 33.2981C10.3525 34.673 10.895 36.0063 11.5906 37.2564C11.7339 37.4959 11.8291 37.7825 11.7481 38.0625C11.6748 38.3775 11.4047 38.5809 11.1925 38.803C9.74438 40.2522 8.29297 41.697 6.84922 43.1495C9.01594 45.3152 11.187 47.4775 13.3472 49.6508C14.92 48.1042 16.4644 46.5281 18.0328 44.9772C18.3292 44.6753 18.828 44.6469 19.1769 44.8744C20.4522 45.5798 21.8073 46.142 23.2084 46.5423C23.623 46.6408 23.9303 47.0444 23.9084 47.4709C23.9128 49.7011 23.9073 51.9313 23.9106 54.1614C26.9709 54.1625 30.0302 54.1636 33.0894 54.1614C33.0905 51.9663 33.0916 49.7711 33.0894 47.5759C33.0828 47.3331 33.1189 47.0761 33.2764 46.8814C33.4689 46.6014 33.82 46.5325 34.1241 46.4417C35.442 46.0523 36.7064 45.4956 37.9073 44.8317C38.2705 44.625 38.7528 44.7234 39.0273 45.0319C40.563 46.5719 42.1084 48.1031 43.6375 49.6497C45.8206 47.4917 47.9852 45.3152 50.1519 43.1419C48.6097 41.6052 47.0741 40.0619 45.5319 38.5252C45.2234 38.2528 45.125 37.7716 45.3295 37.4095C46.0219 36.1605 46.5917 34.8414 46.9877 33.4677C47.0631 33.04 47.3803 32.6222 47.843 32.6003C50.1158 32.5839 52.3897 32.5992 54.6625 32.5927C54.6636 29.5312 54.6647 26.4688 54.6625 23.4073C52.4313 23.4052 50.1989 23.4073 47.9677 23.4062C47.5411 23.4303 47.1386 23.1197 47.0412 22.7073C46.6355 21.2756 46.0569 19.8953 45.3339 18.5959C45.1064 18.2044 45.2453 17.6947 45.5866 17.418C47.1123 15.9042 48.6217 14.3741 50.1508 12.8636C47.9917 10.6816 45.8173 8.51375 43.6408 6.35031C42.1073 7.8925 40.5652 9.42703 39.0284 10.9659C38.7309 11.305 38.1994 11.3717 37.8231 11.1256C36.5522 10.4136 35.1959 9.85359 33.7938 9.45875C33.3825 9.36031 33.073 8.96328 33.0916 8.53891C33.0872 6.30547 33.0927 4.07203 33.0894 1.83859C30.0302 1.8375 26.9698 1.83641 23.9106 1.83859Z" fill="white"/>
<path d="M18.6184 22.1657C20.6408 18.6941 24.5936 16.4257 28.623 16.535C29.0845 16.5854 29.4531 17.0382 29.4105 17.5008C29.3908 17.9668 28.9675 18.3649 28.5016 18.355C26.9156 18.3638 25.333 18.751 23.9373 19.5078C21.9697 20.5655 20.387 22.3243 19.5558 24.3991C18.6392 26.6489 18.6272 29.2499 19.5208 31.5085C20.3247 33.5713 21.8669 35.3322 23.7995 36.4096C25.4817 37.3622 27.4581 37.7757 29.382 37.5952C31.4481 37.4136 33.4431 36.5299 34.9722 35.1288C36.7998 33.4816 37.9581 31.1104 38.1123 28.6527C38.3103 25.9479 37.2877 23.1883 35.3845 21.2578C35.3747 22.2707 35.3911 23.2824 35.3769 24.2941C35.3802 24.7972 34.9022 25.2303 34.4023 25.1822C33.9419 25.1603 33.5437 24.7469 33.5503 24.2843C33.5437 22.6053 33.5427 20.9243 33.5514 19.2443C33.5503 18.7466 34.0195 18.3244 34.5139 18.3605C36.1545 18.3572 37.7941 18.3594 39.4347 18.3594C39.8973 18.32 40.3523 18.6668 40.4169 19.1294C40.5186 19.6489 40.0822 20.186 39.5528 20.1904C38.6734 20.2068 37.7941 20.1903 36.9158 20.1969C38.7314 22.1646 39.8394 24.7732 39.9564 27.4518C40.0964 30.1675 39.2214 32.9183 37.5381 35.0533C35.7761 37.3218 33.1369 38.8946 30.2953 39.331C27.6845 39.751 24.9337 39.2304 22.6631 37.873C20.037 36.3297 18.0705 33.7014 17.3541 30.7385C16.6387 27.8608 17.0948 24.7119 18.6184 22.1657Z" fill="white"/>
</g>
<defs>
<clipPath id="clip0_64_1145">
<rect width="56" height="56" fill="white" transform="translate(0.5)"/>
</clipPath>
</defs>
</svg>
