<svg width="57" height="56" viewBox="0 0 57 56" fill="none" xmlns="http://www.w3.org/2000/svg">
<g clip-path="url(#clip0_64_1103)">
<path d="M32.1121 11.7422H21.2734V13.5486H32.1121V11.7422Z" fill="white"/>
<path d="M32.1118 15.3555H17.6602V17.1619H32.1118V15.3555Z" fill="white"/>
<path d="M51.9839 9.03226H45.6613V0.903226C45.6613 0.663675 45.5661 0.433936 45.3967 0.264549C45.2274 0.095161 44.9976 0 44.7581 0H12.2419C12.0024 0 11.7726 0.095161 11.6033 0.264549C11.4339 0.433936 11.3387 0.663675 11.3387 0.903226V8.11187L4.44439 13.7525C4.3408 13.8372 4.25733 13.9439 4.2 14.0648C4.14267 14.1857 4.11292 14.3178 4.1129 14.4516V19.2839C3.0573 19.6571 2.1432 20.3481 1.49626 21.2619C0.849311 22.1757 0.501279 23.2675 0.5 24.3871V51.4839C0.501434 52.6812 0.9777 53.829 1.82433 54.6757C2.67096 55.5223 3.81882 55.9986 5.01613 56H51.9839C53.1812 55.9986 54.329 55.5223 55.1757 54.6757C56.0223 53.829 56.4986 52.6812 56.5 51.4839V13.5484C56.5 12.3506 56.0242 11.2019 55.1773 10.355C54.3303 9.50806 53.1816 9.03226 51.9839 9.03226ZM13.1452 1.80645H43.8548V25.2903H36.629V23.4839H41.1452V21.6774H36.629V19.871H41.1452V18.0645H36.629V16.2581H41.1452V14.4516H36.629V12.6452H41.1452V10.8387H36.629V6.32258C36.629 6.08303 36.5339 5.85329 36.3645 5.6839C36.1951 5.51452 35.9654 5.41935 35.7258 5.41935H14.9516C14.7432 5.41939 14.5412 5.49151 14.3799 5.62348L13.1452 6.63419V1.80645ZM14.0484 8.22929V13.5484H7.54516L14.0484 8.22929ZM5.91935 15.3548H14.9516C15.1912 15.3548 15.4209 15.2597 15.5903 15.0903C15.7597 14.9209 15.8548 14.6912 15.8548 14.4516V7.22581H34.8226V25.2903H33.0161C32.692 25.2891 32.377 25.1828 32.1184 24.9874C31.8598 24.792 31.6715 24.5179 31.5818 24.2064L30.7689 21.3568C30.5691 20.6694 30.1521 20.0651 29.5803 19.6345C29.0085 19.2038 28.3126 18.9699 27.5968 18.9677H5.91935V15.3548ZM5.01613 54.1935C4.29748 54.1935 3.60826 53.9081 3.1001 53.3999C2.59193 52.8917 2.30645 52.2025 2.30645 51.4839V24.3871C2.30645 23.4289 2.6871 22.5099 3.36465 21.8324C4.0422 21.1548 4.96115 20.7742 5.91935 20.7742H27.5968C27.9209 20.7754 28.2359 20.8817 28.4945 21.0771C28.7531 21.2726 28.9414 21.5466 29.0311 21.8581L29.844 24.7077C30.0438 25.3951 30.4608 25.9994 31.0326 26.43C31.6044 26.8607 32.3003 27.0946 33.0161 27.0968H44.7581C45.4767 27.0968 46.1659 27.3823 46.6741 27.8904C47.1823 28.3986 47.4677 29.0878 47.4677 29.8064V51.4839C47.466 52.4613 47.7831 53.4127 48.371 54.1935H5.01613ZM54.6935 51.4839C54.6935 52.2025 54.4081 52.8917 53.8999 53.3999C53.3917 53.9081 52.7025 54.1935 51.9839 54.1935C51.2652 54.1935 50.576 53.9081 50.0678 53.3999C49.5597 52.8917 49.2742 52.2025 49.2742 51.4839V29.8064C49.2729 28.7657 48.9128 27.7573 48.2547 26.9511C47.5966 26.1449 46.6807 25.5903 45.6613 25.3806V10.8387H51.9839C52.7025 10.8387 53.3917 11.1242 53.8999 11.6324C54.4081 12.1405 54.6935 12.8297 54.6935 13.5484V51.4839Z" fill="white"/>
<path d="M24.6734 37.0314H22.1769C22.7708 35.9756 23.0819 34.7843 23.0801 33.5729V31.612C23.0801 30.8934 22.7947 30.2042 22.2865 29.696C21.7783 29.1878 21.0891 28.9023 20.3705 28.9023C19.6518 28.9023 18.9626 29.1878 18.4544 29.696C17.9463 30.2042 17.6608 30.8934 17.6608 31.612C17.659 32.3128 17.495 33.0037 17.1816 33.6305C16.8682 34.2573 16.4139 34.8031 15.8543 35.2249L12.2414 37.9346C12.2414 37.6951 12.1463 37.4653 11.9769 37.2959C11.8075 37.1265 11.5778 37.0314 11.3382 37.0314H5.91885C5.6793 37.0314 5.44956 37.1265 5.28017 37.2959C5.11079 37.4653 5.01562 37.6951 5.01562 37.9346V50.5798C5.01562 50.8193 5.11079 51.0491 5.28017 51.2184C5.44956 51.3878 5.6793 51.483 5.91885 51.483H11.3382C11.5778 51.483 11.8075 51.3878 11.9769 51.2184C12.1463 51.0491 12.2414 50.8193 12.2414 50.5798V49.6765H22.1769C22.8881 49.679 23.5857 49.4822 24.1906 49.1083C24.7955 48.7344 25.2835 48.1984 25.5992 47.5612L28.0958 42.5682C28.3873 41.9848 28.525 41.3366 28.4956 40.6852C28.4663 40.0337 28.2709 39.4005 27.928 38.8458C27.5851 38.2911 27.1061 37.8332 26.5365 37.5156C25.9669 37.1981 25.3256 37.0314 24.6734 37.0314ZM10.435 49.6765H6.82208V38.8378H10.435V49.6765ZM26.4799 41.7607L23.9834 46.7537C23.8166 47.09 23.559 47.3728 23.2397 47.5701C22.9204 47.7674 22.5523 47.8714 22.1769 47.8701H12.2414V40.1927L16.9382 36.6701C17.7217 36.0796 18.3578 35.3156 18.7966 34.438C19.2354 33.5604 19.4649 32.5932 19.4672 31.612C19.4672 31.3725 19.5624 31.1427 19.7318 30.9733C19.9012 30.804 20.1309 30.7088 20.3705 30.7088C20.61 30.7088 20.8398 30.804 21.0091 30.9733C21.1785 31.1427 21.2737 31.3725 21.2737 31.612V33.5729C21.2756 34.2646 21.1404 34.9498 20.8757 35.5889C20.6111 36.228 20.2223 36.8082 19.7319 37.296C19.6056 37.4223 19.5196 37.5833 19.4848 37.7584C19.4499 37.9336 19.4678 38.1152 19.5362 38.2802C19.6045 38.4452 19.7203 38.5863 19.8688 38.6855C20.0173 38.7848 20.1918 38.8378 20.3705 38.8378H24.6734C25.0177 38.8378 25.3562 38.9258 25.6569 39.0934C25.9576 39.2611 26.2105 39.5028 26.3915 39.7957C26.5725 40.0885 26.6756 40.4228 26.6911 40.7667C26.7065 41.1106 26.6338 41.4527 26.4799 41.7607Z" fill="white"/>
</g>
<defs>
<clipPath id="clip0_64_1103">
<rect width="56" height="56" fill="white" transform="translate(0.5)"/>
</clipPath>
</defs>
</svg>
