<svg width="57" height="56" viewBox="0 0 57 56" fill="none" xmlns="http://www.w3.org/2000/svg">
<g clip-path="url(#clip0_64_1134)">
<path d="M3.94859 0H26.3103C27.4959 0.0864062 28.6181 0.77875 29.1978 1.82219C29.527 2.39203 29.6747 3.05266 29.667 3.70891C29.6627 8.30812 29.6747 12.9073 29.6605 17.5066C29.655 19.3375 28.0439 20.9716 26.2108 20.9923C18.8805 21.0098 11.5491 20.9945 4.21766 21.0011C3.18406 21.0295 2.14609 20.6041 1.45047 19.8362C0.897031 19.2478 0.57875 18.4669 0.5 17.6673V3.36547C0.591875 1.58047 2.16031 0.0404687 3.94859 0ZM3.82281 2.36687C3.25734 2.47844 2.82313 3.02312 2.83734 3.59844C2.8275 8.12219 2.83844 12.6459 2.83188 17.1697C2.71266 17.9659 3.39406 18.748 4.21 18.667C11.4703 18.6659 18.7306 18.667 25.9909 18.6659C26.6964 18.7173 27.357 18.1059 27.3297 17.3917C27.3363 12.7991 27.3363 8.20531 27.3297 3.61266C27.3559 2.93344 26.7566 2.32094 26.0773 2.33625C18.828 2.3275 11.5775 2.33844 4.32703 2.33078C4.15859 2.33406 3.98906 2.33516 3.82281 2.36687Z" fill="white"/>
<path d="M38.953 0H53.1389C53.9231 0.0678125 54.6931 0.368594 55.2827 0.897969C56.0188 1.53672 56.4574 2.485 56.5022 3.45625V17.6247C56.4169 18.8891 55.6381 20.078 54.4952 20.6303C53.9319 20.9125 53.2975 21.0142 52.673 21.0011C48.1153 20.9945 43.5588 21.0087 39.0022 20.9945C37.1571 20.9923 35.511 19.3583 35.5077 17.5109C35.4946 12.9161 35.5066 8.32016 35.5011 3.72531C35.4803 2.87 35.7505 2.00484 36.2985 1.34203C36.9361 0.538125 37.9292 0.0426563 38.953 0ZM38.836 2.36359C38.218 2.47625 37.7838 3.09859 37.8352 3.71547C37.8385 8.27859 37.8297 12.8417 37.8396 17.4048C37.8166 18.13 38.5056 18.7348 39.2188 18.667C43.7819 18.6637 48.3439 18.6725 52.906 18.6627C53.5797 18.6802 54.1813 18.0797 54.1649 17.4059C54.1714 12.8045 54.1714 8.20203 54.1649 3.60062C54.1856 2.92359 53.5819 2.31656 52.9049 2.33734C48.4905 2.3275 44.0761 2.33734 39.6617 2.33187C39.3861 2.33406 39.1083 2.31875 38.836 2.36359Z" fill="white"/>
<path d="M1.40891 28.0409C2.08047 27.2764 3.08891 26.8257 4.10609 26.8345C8.70312 26.8312 13.3002 26.8312 17.8972 26.8345C19.4055 26.8061 20.847 27.844 21.3097 29.2779C21.5394 29.9189 21.5 30.609 21.5 31.2784C21.4978 38.3167 21.5033 45.3561 21.4978 52.3943C21.5022 53.3382 21.1194 54.2767 20.4489 54.9417C19.8452 55.5596 19.0139 55.9162 18.1608 55.9993H3.87859C2.88437 55.925 1.92078 55.4437 1.29844 54.6595C0.8325 54.0962 0.574375 53.3864 0.5 52.6656V30.1879C0.57 29.4004 0.874063 28.6282 1.40891 28.0409ZM3.69375 29.2331C3.15781 29.4015 2.80234 29.9561 2.83297 30.5117C2.83188 37.6243 2.83516 44.7359 2.83187 51.8486C2.83844 52.2489 2.78594 52.6864 3.01016 53.044C3.2475 53.4651 3.73641 53.6926 4.21219 53.6664C8.77531 53.6631 13.3395 53.6718 17.9027 53.662C18.5764 53.6806 19.1802 53.0801 19.1627 52.4053C19.1725 45.1056 19.1648 37.8048 19.1659 30.5051C19.2162 29.7986 18.6016 29.139 17.8873 29.1696C13.4773 29.1598 9.06625 29.1707 4.65625 29.1642C4.33578 29.1686 4.00547 29.1412 3.69375 29.2331Z" fill="white"/>
<path d="M28.5569 27.7288C29.2241 27.1327 30.1199 26.8167 31.0124 26.8331C38.2683 26.8331 45.5253 26.8342 52.7813 26.8331C53.6246 26.8134 54.4755 27.077 55.1339 27.6085C55.9203 28.221 56.4038 29.1704 56.5 30.1559V52.6248C56.4224 53.6431 55.9193 54.6285 55.1 55.2487C54.5488 55.6906 53.8575 55.9235 53.1608 56.0001H30.6985C29.3991 55.9093 28.1807 55.0802 27.6535 53.8859C27.3472 53.2515 27.3144 52.5351 27.3319 51.8449C27.3352 44.7356 27.3319 37.6262 27.333 30.5168C27.3078 29.4668 27.7596 28.4157 28.5569 27.7288ZM30.6033 29.212C30.028 29.352 29.6288 29.9338 29.6671 30.5201C29.6682 37.8099 29.6627 45.0998 29.6704 52.3896C29.6441 53.0645 30.2402 53.6737 30.915 53.6627C38.2071 53.6726 45.5002 53.6638 52.7911 53.6671C53.5053 53.7306 54.1878 53.1213 54.1627 52.3962C54.1725 45.2485 54.1616 38.1009 54.1682 30.9521C54.1649 30.5496 54.2064 30.1099 53.9713 29.7577C53.7263 29.3542 53.2494 29.1398 52.7846 29.166C45.5286 29.1671 38.2716 29.166 31.0157 29.1671C30.8757 29.1682 30.7389 29.1835 30.6033 29.212Z" fill="white"/>
</g>
<defs>
<clipPath id="clip0_64_1134">
<rect width="56" height="56" fill="white" transform="translate(0.5)"/>
</clipPath>
</defs>
</svg>
