<svg width="57" height="56" viewBox="0 0 57 56" fill="none" xmlns="http://www.w3.org/2000/svg">
<path d="M27.625 0.875C28.208 0.875 28.792 0.875 29.375 0.875C29.375 2.04203 29.375 3.20797 29.375 4.375C28.7909 4.375 28.208 4.375 27.625 4.375C27.625 3.20797 27.625 2.04203 27.625 0.875Z" fill="white"/>
<path d="M11.7969 8.15781C12.2103 7.74656 12.6216 7.33312 13.035 6.92188C13.8586 7.74766 14.6866 8.56906 15.508 9.39703C15.0978 9.80937 14.6855 10.2206 14.2731 10.6319C13.4462 9.80938 12.6237 8.98031 11.7969 8.15781Z" fill="white"/>
<path d="M41.4922 9.39984C42.3147 8.57406 43.1394 7.75047 43.9641 6.92578C44.3797 7.33594 44.792 7.74828 45.2022 8.16391C44.3775 8.98859 43.555 9.81328 42.7292 10.6358C42.3147 10.2245 41.9034 9.81219 41.4922 9.39984Z" fill="white"/>
<path d="M22.012 9.26891C24.6698 8.0625 27.6678 7.61406 30.5619 8.00453C34.1253 8.46063 37.5028 10.1997 39.9594 12.8192C42.5395 15.5438 44.0872 19.2188 44.2283 22.9692C44.4448 27.3158 42.7266 31.7094 39.6225 34.7587C37.2064 37.1037 35.7102 40.3697 35.5417 43.7363C35.9727 43.8073 36.3806 44.1497 36.3664 44.6167C36.3773 46.6642 36.3719 48.7128 36.3697 50.7603C36.3872 51.6473 35.6237 52.4611 34.7367 52.4939C33.7895 52.5158 32.8402 52.4939 31.8919 52.5037C31.672 53.2759 31.2148 53.9836 30.5586 54.455C29.5261 55.2206 28.0616 55.3431 26.9197 54.7492C26.025 54.3073 25.3633 53.4619 25.1008 52.5037C24.1514 52.4939 23.202 52.518 22.2527 52.4939C21.3689 52.4567 20.6022 51.6452 20.6241 50.7581C20.6219 48.7095 20.6164 46.6598 20.6273 44.6113C20.6131 44.1453 21.02 43.803 21.452 43.7308C21.2563 40.3992 19.7928 37.1694 17.4281 34.8167C14.9169 32.3372 13.2752 29.0002 12.8628 25.4947C12.4888 22.4202 13.0509 19.2406 14.4597 16.4822C16.0598 13.3136 18.7691 10.7181 22.012 9.26891ZM25.862 9.86391C22.6617 10.4688 19.6998 12.2395 17.648 14.7672C15.6213 17.2413 14.487 20.4284 14.4991 23.6266C14.4947 26.828 15.6344 30.0162 17.672 32.4859C18.2692 33.2319 18.9955 33.8619 19.6014 34.6002C21.7572 37.153 23.0402 40.4178 23.2228 43.7527C26.7381 43.7527 30.2534 43.7527 33.7688 43.7527C33.9317 40.4134 35.2169 37.1409 37.3891 34.598C37.9327 33.9384 38.5769 33.373 39.1292 32.7211C40.8059 30.772 41.9238 28.3494 42.3241 25.8086C42.7889 22.9178 42.3131 19.8859 40.982 17.2773C39.6334 14.602 37.3945 12.3894 34.7072 11.0659C31.9947 9.71406 28.837 9.2886 25.862 9.86391ZM22.3719 45.5027C22.3719 47.2527 22.3719 49.0027 22.3719 50.7527C23.505 50.7537 24.637 50.7505 25.7702 50.7527C26.0589 50.7395 26.363 50.838 26.5456 51.0731C26.8322 51.4089 26.6922 51.8902 26.8705 52.2719C27.2095 53.1688 28.3448 53.6478 29.2155 53.2212C29.8334 52.9456 30.2458 52.2992 30.2513 51.6233C30.2436 51.1617 30.6439 50.7472 31.1088 50.7581C32.2791 50.7439 33.4505 50.757 34.6219 50.7527C34.6219 49.0027 34.6219 47.2527 34.6219 45.5027C30.5389 45.5027 26.4548 45.5027 22.3719 45.5027Z" fill="white"/>
<path d="M23.952 16.0225C25.0928 14.7504 26.7827 13.9925 28.4922 14.0001C30.205 13.9892 31.9058 14.7417 33.0466 16.0192C34.1578 17.2387 34.7353 18.9231 34.6084 20.5681C34.5013 22.1814 33.7094 23.7203 32.4909 24.7779C30.3789 26.6767 29.2348 29.5489 29.3727 32.3773C28.7886 32.3773 28.2056 32.3773 27.6227 32.3773C27.5056 29.504 28.4933 26.5979 30.3909 24.4312C30.7595 23.9937 31.185 23.6109 31.5973 23.215C32.5139 22.3006 32.9886 20.9673 32.8508 19.6789C32.7294 18.3729 31.978 17.1446 30.8689 16.4446C29.6953 15.6812 28.1488 15.5489 26.8559 16.0793C25.2295 16.7093 24.1117 18.3861 24.1183 20.1273C23.5342 20.1273 22.9513 20.1284 22.3672 20.1262C22.3759 18.6256 22.9403 17.1337 23.952 16.0225Z" fill="white"/>
<path d="M5.75 22.75C6.91703 22.75 8.08297 22.75 9.25 22.75C9.25 23.333 9.25 23.917 9.25 24.5C8.08297 24.5 6.91703 24.5 5.75 24.5C5.75 23.9159 5.75 23.333 5.75 22.75Z" fill="white"/>
<path d="M47.75 22.75C48.917 22.75 50.083 22.75 51.25 22.75C51.25 23.333 51.25 23.9159 51.25 24.5C50.083 24.5 48.917 24.5 47.75 24.5C47.75 23.917 47.75 23.333 47.75 22.75Z" fill="white"/>
<path d="M27.625 34.125C28.208 34.125 28.792 34.125 29.375 34.125C29.375 34.708 29.375 35.292 29.375 35.875C28.7909 35.875 28.208 35.875 27.625 35.875C27.625 35.292 27.625 34.708 27.625 34.125Z" fill="white"/>
<path d="M11.7891 39.0912C12.6159 38.2677 13.4373 37.4397 14.2653 36.6172C14.6777 37.0284 15.0889 37.4397 15.5002 37.8531C14.6798 38.68 13.8497 39.497 13.0327 40.3272C12.6116 39.9214 12.2036 39.5025 11.7891 39.0912Z" fill="white"/>
<path d="M41.4844 37.8503C41.8956 37.4369 42.308 37.0245 42.7214 36.6133C43.5483 37.4358 44.3708 38.2616 45.1955 39.0852C44.7853 39.5008 44.3719 39.9131 43.9573 40.3244C43.1327 39.4997 42.308 38.6761 41.4844 37.8503Z" fill="white"/>
</svg>
