<svg width="57" height="56" viewBox="0 0 57 56" fill="none" xmlns="http://www.w3.org/2000/svg">
<path d="M12.1543 3.2398C12.4945 2.38777 13.3673 1.78183 14.2861 1.7698C15.242 1.72824 16.2023 2.28824 16.5917 3.1698C16.8914 3.79542 16.7842 4.50308 16.8039 5.17136C17.867 5.17245 18.9301 5.17245 19.9933 5.17136C20.014 4.53152 19.9101 3.86105 20.1672 3.25292C20.5139 2.37136 21.4283 1.75011 22.3787 1.7698C23.3259 1.75449 24.2643 2.33308 24.6297 3.21574C24.9086 3.83152 24.7959 4.52058 24.8265 5.17464C25.8875 5.16917 26.9484 5.17355 28.0104 5.17246C28.0225 4.68902 27.9787 4.2012 28.0509 3.72214C28.2008 2.81433 28.9325 2.04105 29.8283 1.83542C30.9023 1.56417 32.1372 2.10667 32.6053 3.12386C32.9323 3.75714 32.8197 4.48667 32.8393 5.17136C33.9025 5.17245 34.9667 5.17245 36.0298 5.17136C36.0364 4.72183 36.0068 4.27011 36.0539 3.82277C36.1545 2.96417 36.7768 2.19964 37.5884 1.91089C38.3333 1.64621 39.2126 1.74136 39.8558 2.21167C40.4398 2.6273 40.8193 3.31964 40.8423 4.03824C40.8576 4.41558 40.8456 4.79402 40.8489 5.17136C42.04 5.22058 43.277 5.01824 44.4222 5.43496C45.8506 5.92605 46.9848 7.16855 47.3578 8.63089C47.5459 9.31121 47.5076 10.0221 47.5098 10.72C47.5109 17.2803 47.5087 23.8395 47.5109 30.3998C49.6886 28.232 51.8542 26.051 54.0329 23.8843C54.5054 23.3539 55.5018 23.7826 55.4089 24.499C55.41 34.0901 55.4078 43.6812 55.41 53.2712C55.4723 53.7656 55.0523 54.2523 54.5448 54.2075C38.4601 54.2107 22.3754 54.2064 6.29075 54.2096C5.90028 54.2479 5.51091 54.0106 5.37638 53.6409C4.15028 50.8934 2.92091 48.147 1.69263 45.4006C1.53403 45.056 1.58981 44.6678 1.57997 44.3014C1.58325 35.185 1.57997 26.0685 1.58216 16.9532C1.5581 15.9634 2.17716 15.002 3.08716 14.6148C3.78825 14.2921 4.57685 14.4343 5.32169 14.4026C5.32716 12.8451 5.31731 11.2876 5.32606 9.73011C5.33591 8.58167 5.79528 7.44636 6.58935 6.61839C7.41294 5.74121 8.59091 5.20527 9.79513 5.17683C10.5225 5.16371 11.2487 5.17683 11.975 5.17136C11.9958 4.52824 11.8918 3.85011 12.1543 3.2398ZM14.2073 3.43777C13.8825 3.51214 13.6243 3.81839 13.6418 4.15746C13.6342 5.40105 13.6386 6.64574 13.6397 7.89042C13.6243 8.16714 13.7578 8.45042 14.0039 8.58824C14.46 8.86714 15.1917 8.55433 15.1928 7.98558C15.207 6.70808 15.2004 5.42949 15.195 4.15199C15.2234 3.64886 14.6711 3.27589 14.2073 3.43777ZM22.1993 3.44324C21.8833 3.52199 21.6361 3.82386 21.6514 4.15527C21.6437 5.39777 21.6492 6.64027 21.6492 7.88277C21.6339 8.15402 21.7553 8.43402 21.9937 8.57621C22.4465 8.8748 23.1958 8.56527 23.2012 7.99214C23.2165 6.71246 23.2089 5.43058 23.2056 4.15089C23.2308 3.6423 22.6664 3.26824 22.1993 3.44324ZM30.187 3.45199C29.8851 3.54167 29.6543 3.8337 29.6697 4.15417C29.6642 5.42839 29.6598 6.70371 29.6718 7.97683C29.6631 8.43292 30.1465 8.78292 30.5808 8.67355C30.9592 8.62542 31.2611 8.26996 31.2261 7.88605C31.2272 6.64136 31.2315 5.39558 31.2239 4.15089C31.2512 3.62917 30.6595 3.25621 30.187 3.45199ZM38.1648 3.44761C37.8728 3.54714 37.6693 3.84464 37.6803 4.15308C37.6704 5.39558 37.677 6.63917 37.677 7.88167C37.6311 8.31917 38.015 8.72605 38.4557 8.69324C38.8867 8.71402 39.2586 8.31589 39.2181 7.88824C39.2192 6.64246 39.2247 5.39558 39.2159 4.1498C39.2465 3.61605 38.6395 3.25511 38.1648 3.44761ZM9.61685 6.83058C8.22013 6.96949 7.0356 8.21417 6.98638 9.62183C6.96669 11.2176 6.9831 12.8145 6.97872 14.4103C7.48185 14.419 7.98606 14.3906 8.4881 14.4256C9.45169 14.5065 10.3201 15.2065 10.6187 16.122C10.8014 16.636 10.7456 17.1884 10.7533 17.7232C10.7543 26.7642 10.7522 35.8062 10.7543 44.8471C10.7598 45.0561 10.7183 45.2639 10.6275 45.4531C9.55997 47.8331 8.49138 50.2142 7.42935 52.5975C13.3914 52.5975 19.3534 52.5975 25.3143 52.5975C32.1776 45.7462 39.0343 38.8884 45.8965 32.0361C45.9009 24.7834 45.8954 17.5307 45.8987 10.2792C45.9053 9.76183 45.9009 9.22917 45.7062 8.74136C45.33 7.70777 44.3423 6.93011 43.2464 6.81964C42.4567 6.77261 41.6648 6.8098 40.8751 6.79777C40.8489 7.52183 40.979 8.29511 40.6443 8.96886C40.2364 9.86902 39.2268 10.4268 38.2479 10.3196C37.21 10.2595 36.2879 9.43261 36.1009 8.41324C36.0167 7.87949 36.0692 7.33699 36.055 6.79886C34.9918 6.79777 33.9287 6.79777 32.8656 6.79886C32.8383 7.51417 32.9695 8.27433 32.6458 8.9437C32.2597 9.81105 31.3147 10.3842 30.3675 10.324C29.4662 10.2956 28.5978 9.73667 28.239 8.90433C27.935 8.2448 28.064 7.49996 28.0378 6.79886C26.9736 6.79667 25.9104 6.79886 24.8473 6.79886C24.82 7.48136 24.9414 8.19886 24.6701 8.84855C24.3354 9.68745 23.49 10.2901 22.5876 10.324C21.6164 10.3853 20.6276 9.82527 20.2317 8.9273C19.9145 8.2623 20.0468 7.50871 20.0184 6.79886C18.9553 6.79777 17.8911 6.79777 16.8279 6.79886C16.8028 7.49996 16.9275 8.24261 16.6311 8.90433C16.2767 9.74214 15.4072 10.3284 14.4961 10.335C13.5554 10.3667 12.6137 9.8187 12.2211 8.95464C11.8929 8.28527 12.0286 7.52292 12.0001 6.80542C11.2061 6.81746 10.4098 6.77699 9.61685 6.83058ZM3.22169 16.9576C3.21403 18.3106 3.2206 19.6635 3.2195 21.0165C5.18716 21.0176 7.15591 21.0176 9.12356 21.0165C9.12138 19.6592 9.12903 18.3029 9.12138 16.9467C9.14106 16.4753 8.73528 16.0389 8.25841 16.0432C6.87919 16.0301 5.49778 16.0345 4.11747 16.041C3.62856 16.0235 3.19325 16.4698 3.22169 16.9576ZM3.2195 22.6582C3.21841 29.8278 3.21841 36.9973 3.2195 44.1679C3.92825 44.1723 4.637 44.1581 5.34575 44.1756C5.372 37.0039 5.35122 29.83 5.35669 22.6571C4.64466 22.6571 3.93153 22.6571 3.2195 22.6582ZM6.98638 22.6582C6.98638 29.8278 6.98638 36.9973 6.98638 44.1679C7.69622 44.1679 8.40606 44.1679 9.11591 44.1679C9.11591 36.9973 9.11591 29.8278 9.11591 22.6582C8.40606 22.6571 7.69622 22.6571 6.98638 22.6582ZM27.6429 52.5975C29.1972 52.5964 30.7514 52.5975 32.3056 52.5964C32.3395 52.1195 32.2093 51.6032 32.4161 51.1559C32.7048 50.6025 33.6028 50.6342 33.85 51.2073C34.0129 51.6481 33.9025 52.1359 33.9342 52.5964C34.9186 52.5964 35.9029 52.5985 36.8873 52.5964C36.9125 52.1403 36.8173 51.6634 36.9617 51.2237C37.1859 50.6779 38.0139 50.5882 38.3497 51.0739C38.6472 51.5212 38.4678 52.0943 38.5159 52.5975C39.5003 52.5975 40.4836 52.5964 41.4679 52.5975C41.4865 52.1665 41.4209 51.7279 41.5128 51.3046C41.6714 50.7556 42.4458 50.5653 42.8428 50.9754C43.2639 51.402 43.0451 52.0615 43.0965 52.5953C44.0809 52.5986 45.0653 52.5964 46.0497 52.5975C46.0628 52.1796 46.0168 51.7585 46.0825 51.3462C46.2126 50.7742 47.0111 50.5521 47.4201 50.9711C47.8478 51.3976 47.6258 52.0604 47.6783 52.5964C48.6626 52.5985 49.647 52.5964 50.6325 52.5964C50.6883 52.0528 50.4531 51.3703 50.9125 50.9514C51.3183 50.5675 52.0664 50.772 52.2184 51.3101C52.3037 51.7301 52.2458 52.1632 52.2611 52.5898C52.7751 52.5898 53.2903 52.5898 53.8054 52.5898C53.8065 51.0946 53.8065 49.6006 53.8054 48.1054C53.322 48.0759 52.8178 48.1765 52.3486 48.0354C51.7251 47.8057 51.6956 46.8268 52.3048 46.5611C52.7817 46.3871 53.3078 46.5053 53.8043 46.4725C53.8065 45.4881 53.8065 44.5037 53.8054 43.5193C53.3647 43.5062 52.9217 43.5478 52.4831 43.4964C51.899 43.3903 51.6464 42.5864 52.0631 42.1642C52.5159 41.6982 53.2323 41.9607 53.8054 41.8929C53.8054 40.9086 53.8054 39.9242 53.8054 38.9398C53.2903 38.895 52.727 39.0514 52.2458 38.8184C51.6693 38.5067 51.7645 37.5518 52.3912 37.3593C52.8539 37.262 53.3351 37.3364 53.8054 37.3134C53.8065 36.329 53.8065 35.3446 53.8043 34.3603C53.3559 34.3471 52.9009 34.3964 52.4557 34.3264C51.8772 34.1984 51.6508 33.389 52.0817 32.98C52.5422 32.5425 53.2378 32.7929 53.8054 32.7273C53.8065 30.6295 53.8065 28.5328 53.8054 26.435C45.0839 35.1554 36.3623 43.8759 27.6429 52.5975ZM3.65263 45.8096C4.48497 47.681 5.32606 49.547 6.16169 51.4173C7.0006 49.5492 7.83622 47.6789 8.67075 45.8096C6.99841 45.8086 5.32606 45.8075 3.65263 45.8096Z" fill="white"/>
<path d="M24.004 15.4344C24.0849 15.034 24.5049 14.7847 24.8987 14.8197C26.4321 14.8481 27.9645 14.8787 29.4979 14.9105C29.8818 14.8897 30.2624 15.1598 30.3357 15.5437C30.4582 16.2109 30.5402 16.8847 30.6496 17.554C31.2413 17.7706 31.8276 18.0101 32.3734 18.3284C32.9454 17.9905 33.478 17.5912 34.0391 17.2347C34.3629 17.0083 34.8354 17.0629 35.0968 17.3583C36.1009 18.3995 37.0907 19.4539 38.0937 20.4962C38.4896 20.8101 38.8046 21.3887 38.4327 21.847C38.0532 22.3797 37.6551 22.8992 37.2701 23.4275C37.5468 24.0061 37.7787 24.6054 37.9646 25.219C38.6296 25.3645 39.3012 25.4739 39.9629 25.6336C40.3282 25.7233 40.5677 26.1039 40.5404 26.4714C40.5098 27.9654 40.4627 29.4595 40.4332 30.9536C40.4693 31.3583 40.2932 31.8308 39.8655 31.9445C39.1765 32.09 38.4754 32.1753 37.7798 32.2879C37.5709 32.8906 37.3105 33.4747 37.0076 34.0358C37.3652 34.5936 37.747 35.1372 38.098 35.7004C38.3201 36.0362 38.2337 36.512 37.9285 36.7669C36.8107 37.8354 35.6951 38.9051 34.5751 39.9704C34.3038 40.2636 33.8182 40.3401 33.4934 40.0919C32.9541 39.7134 32.4346 39.3098 31.8998 38.9248C31.3157 39.1994 30.712 39.4301 30.0973 39.6248C29.9627 40.2712 29.8457 40.9209 29.7035 41.5651C29.6357 41.9654 29.2343 42.2498 28.8351 42.2126C27.2995 42.182 25.7627 42.147 24.2271 42.1142C23.829 42.1415 23.4221 41.8648 23.3587 41.4601C23.2384 40.8017 23.164 40.1356 23.0546 39.4761C22.4552 39.2584 21.8679 39.0058 21.3057 38.7039C20.7479 39.0703 20.2032 39.4564 19.6399 39.814C19.314 40.0306 18.847 39.9639 18.5943 39.6664C17.5082 38.5322 16.421 37.3979 15.3393 36.2604C15.0637 35.9859 15.0166 35.5189 15.2562 35.2072C15.6401 34.6669 16.0404 34.1397 16.4287 33.6026C16.152 33.024 15.9343 32.4203 15.7298 31.8133C15.0965 31.6951 14.4643 31.5726 13.8332 31.4414C13.446 31.3845 13.1365 31.0181 13.166 30.6233C13.1955 29.057 13.2426 27.4908 13.2798 25.9245C13.2513 25.5187 13.5412 25.1097 13.9546 25.0572C14.6098 24.938 15.2715 24.8548 15.9277 24.7433C16.1465 24.1417 16.4002 23.5522 16.6988 22.9856C16.339 22.4278 15.9573 21.8842 15.604 21.3231C15.3918 20.9972 15.4662 20.5378 15.7582 20.2851C16.8935 19.198 18.0288 18.1119 19.1674 17.029C19.4365 16.7501 19.9002 16.7053 20.2109 16.9426C20.749 17.3233 21.2751 17.7214 21.8099 18.1075C22.3885 17.8297 22.9879 17.5989 23.6004 17.4086C23.7393 16.7512 23.852 16.0884 24.004 15.4344ZM25.078 18.2562C25.0157 18.5669 24.7576 18.814 24.4502 18.8819C23.6802 19.0875 22.9266 19.362 22.2245 19.7437C21.9499 19.9023 21.5846 19.9647 21.3079 19.7765C20.7927 19.4287 20.306 19.0415 19.8018 18.6795C18.976 19.4572 18.1601 20.2458 17.3387 21.0278C17.6646 21.5342 18.0091 22.0297 18.3296 22.5394C18.497 22.7997 18.4991 23.1486 18.3329 23.4111C17.9107 24.1286 17.5782 24.8942 17.331 25.6894C17.2512 25.9967 16.992 26.2395 16.6791 26.292C16.083 26.3981 15.4815 26.4758 14.8854 26.5797C14.846 27.7161 14.8055 28.8525 14.7673 29.9889C15.371 30.1081 15.9802 30.2076 16.5785 30.3531C16.888 30.4209 17.1035 30.6998 17.1735 30.9973C17.3595 31.7159 17.6121 32.4192 17.9534 33.0787C18.1229 33.3773 18.2607 33.7558 18.0649 34.0773C17.7171 34.6133 17.3091 35.1087 16.9395 35.6315C17.716 36.4475 18.5002 37.2579 19.2724 38.0794C19.8215 37.7425 20.3323 37.3454 20.8868 37.0195C21.3232 36.7844 21.7574 37.1136 22.1293 37.317C22.7221 37.6517 23.362 37.8923 24.0095 38.0979C24.2873 38.18 24.4951 38.4315 24.5454 38.7148C24.6548 39.3076 24.728 39.907 24.8177 40.5042C25.9509 40.5348 27.0851 40.56 28.2193 40.5709C28.3385 39.9781 28.4457 39.382 28.578 38.7925C28.6491 38.46 28.9434 38.2161 29.2693 38.1526C30.0568 37.9558 30.8159 37.6572 31.5312 37.2744C31.8101 37.1092 32.1754 37.1289 32.4346 37.3236C32.918 37.667 33.3862 38.0312 33.8663 38.379C34.6866 37.5926 35.508 36.8073 36.3262 36.0198C35.9762 35.4675 35.5824 34.9414 35.2598 34.3726C35.0837 34.0117 35.3002 33.6453 35.4884 33.3434C35.8712 32.7014 36.1293 31.9959 36.3634 31.2894C36.4509 30.9973 36.7298 30.7983 37.0251 30.7567C37.608 30.6583 38.1932 30.5751 38.7773 30.4811C38.8079 29.3501 38.8352 28.2181 38.8626 27.0872C38.273 26.9504 37.6759 26.8509 37.0863 26.7197C36.7713 26.6497 36.5384 26.374 36.4705 26.0656C36.2671 25.2956 35.9904 24.5431 35.612 23.8409C35.4337 23.55 35.4205 23.1617 35.6316 22.8828C35.9795 22.3939 36.348 21.9214 36.6991 21.4347C35.9171 20.6187 35.1482 19.7886 34.3552 18.9836C33.8805 19.3117 33.4026 19.6344 32.9213 19.9515C32.637 20.1604 32.2355 20.1594 31.9413 19.969C31.249 19.5589 30.5063 19.2373 29.7374 19.0011C29.4366 18.9179 29.1785 18.6762 29.1184 18.3645C29.009 17.7619 28.9346 17.1537 28.834 16.5489C27.703 16.5248 26.5721 16.503 25.4412 16.4811C25.3143 17.0706 25.2115 17.6667 25.078 18.2562Z" fill="white"/>
<path d="M26.3458 22.1258C27.9974 21.9912 29.6938 22.5304 30.9593 23.6023C32.1471 24.59 32.9543 26.0195 33.1894 27.5464C33.4508 29.2308 33.0133 31.0147 31.9841 32.3753C30.4004 34.5365 27.3882 35.4936 24.8518 34.6218C23.1772 34.0848 21.7532 32.8226 21.0236 31.2225C20.2099 29.4747 20.2438 27.3583 21.1232 25.6411C22.0988 23.6679 24.1507 22.2876 26.3458 22.1258ZM26.0429 23.8058C24.3541 24.0803 22.8775 25.3359 22.3274 26.9536C21.8363 28.3306 22.0299 29.9275 22.8382 31.1459C23.6071 32.3283 24.9196 33.1431 26.3261 33.2809C27.7469 33.445 29.2246 32.9265 30.2319 31.9115C31.2502 30.9108 31.7665 29.4331 31.6046 28.0156C31.4657 26.609 30.6552 25.2911 29.4718 24.5222C28.4754 23.8583 27.2208 23.6023 26.0429 23.8058Z" fill="white"/>
<path d="M48.3512 37.2534C48.8478 37.1134 49.3837 37.5421 49.3651 38.0562C49.3739 41.1242 49.3662 44.1943 49.3695 47.2634C49.4176 47.7414 49.0075 48.2018 48.5175 48.1679C45.4178 48.1701 42.3181 48.1756 39.2184 48.1646C38.5392 48.1876 38.1564 47.2503 38.6606 46.7942C41.6411 43.7951 44.6401 40.8146 47.6217 37.8167C47.8437 37.6078 48.0395 37.331 48.3512 37.2534ZM41.2058 46.5448C43.3801 46.5437 45.5556 46.5437 47.73 46.5448C47.7322 44.3715 47.7311 42.1993 47.7311 40.0271C45.5567 42.2004 43.379 44.3704 41.2058 46.5448Z" fill="white"/>
</svg>
